# xmcd
#
# Track frame offsets:
#	150
#	12934
#	29218
#	46863
#	55018
#	66678
#	78876
#	96623
#	111846
#	127285
#	141025
#	152094
#	169684
#	179468
#	197017
#	221887
#
# Disc length: 3145
#
# Revision: 1
# Processed by: cddbd v1.5.1PL0 Copyright (c) Steve Scherf et al.
# Submitted via: CDex 1.51
# Normalized: r0:TDELIM( - )
#
DISCID=f20c4710
DTITLE=Inner City Residents - Patchworks
DYEAR=2003
DGENRE=Jazz
TTITLE0=Three Dollar Wine - Doug Carlson
TTITLE1=Bishop From The Pawn - Doug Carson
TTITLE2=Another Late Night - Richard Monkman
TTITLE3=Living With Grace - Roy Agnew
TTITLE4=Romanza Espana - Sam Simandjuntak
TTITLE5=Bluzin - Dave "Lean Loaf" Taylor
TTITLE6=Tundra (urban mix) - Bruce Fox
TTITLE7=Northern City Lights - Joyce Michalchuk
TTITLE8=Green (The Colour of the Air) - Joyce Michalchuk
TTITLE9=The Foresaken - Bruce Fox
TTITLE10=She Didn't Even - Earl Predy
TTITLE11=Pill Blues - Dale Sommerville
TTITLE12=House of Linda's - Roy Agnew
TTITLE13=Bread and Butter - Dave "Lean Loaf" Taylor
TTITLE14=Wind - Richard Monkman
TTITLE15=Steal the Laugh - John Flett
EXTD=YEAR: 2003
EXTT0=
EXTT1=
EXTT2=
EXTT3=
EXTT4=
EXTT5=
EXTT6=
EXTT7=
EXTT8=
EXTT9=
EXTT10=
EXTT11=
EXTT12=
EXTT13=
EXTT14=
EXTT15=
PLAYORDER=
